<svg width="10" height="6" viewBox="0 0 10 6" fill="none" xmlns="http://www.w3.org/2000/svg">
<path d="M9.55 1.43748L5.35 5.64998C5.3 5.69998 5.24583 5.73531 5.1875 5.75598C5.12916 5.77698 5.06666 5.78748 5 5.78748C4.93333 5.78748 4.87083 5.77698 4.8125 5.75598C4.75416 5.73531 4.7 5.69998 4.65 5.64998L0.437497 1.43748C0.32083 1.32081 0.262497 1.17498 0.262497 0.999976C0.262497 0.824975 0.324997 0.674976 0.449997 0.549976C0.574997 0.424976 0.72083 0.362476 0.887497 0.362476C1.05416 0.362476 1.2 0.424976 1.325 0.549976L5 4.22498L8.675 0.549976C8.79166 0.433309 8.93533 0.374975 9.106 0.374975C9.277 0.374975 9.425 0.437475 9.55 0.562475C9.675 0.687475 9.7375 0.833309 9.7375 0.999975C9.7375 1.16664 9.675 1.31248 9.55 1.43748Z" fill="#483C31"/>
</svg>
