<svg width="44" height="44" viewBox="0 0 44 44" fill="none" xmlns="http://www.w3.org/2000/svg">
<path d="M2 2L2.58368 2.19556C5.49106 3.17333 6.94476 3.66222 7.77512 4.82667C8.60769 5.99111 8.60769 7.53778 8.60769 10.6289V16.4444C8.60769 22.7289 8.60769 25.8733 10.5437 27.8244C12.4776 29.7778 15.5942 29.7778 21.8231 29.7778H39.4436" stroke="#CF9D3A" stroke-width="2.66667" stroke-linecap="round"/>
<path d="M8.60767 8.66669H33.827C38.3533 8.66669 40.6175 8.66669 41.5955 10.1645C42.5756 11.6645 41.6836 13.7622 39.8995 17.96L38.9568 20.1822C38.1242 22.1422 37.7079 23.12 36.882 23.6711C36.0538 24.2222 34.9966 24.2222 32.8843 24.2222H8.60767M14.1141 35.3334C14.9903 35.3334 15.8307 35.6845 16.4502 36.3097C17.0698 36.9348 17.4179 37.7826 17.4179 38.6667C17.4179 39.5507 17.0698 40.3986 16.4502 41.0237C15.8307 41.6488 14.9903 42 14.1141 42C13.2378 42 12.3975 41.6488 11.7779 41.0237C11.1583 40.3986 10.8102 39.5507 10.8102 38.6667C10.8102 37.7826 11.1583 36.9348 11.7779 36.3097C12.3975 35.6845 13.2378 35.3334 14.1141 35.3334ZM33.9372 35.3334C34.8134 35.3334 35.6537 35.6845 36.2733 36.3097C36.8929 36.9348 37.241 37.7826 37.241 38.6667C37.241 39.5507 36.8929 40.3986 36.2733 41.0237C35.6537 41.6488 34.8134 42 33.9372 42C33.0609 42 32.2206 41.6488 31.601 41.0237C30.9814 40.3986 30.6333 39.5507 30.6333 38.6667C30.6333 37.7826 30.9814 36.9348 31.601 36.3097C32.2206 35.6845 33.0609 35.3334 33.9372 35.3334Z" stroke="#CF9D3A" stroke-width="2.66667"/>
</svg>
