<svg width="11" height="11" viewBox="0 0 11 11" fill="none" xmlns="http://www.w3.org/2000/svg">
<path d="M10.875 10.3447L8.04298 7.51273C8.72353 6.69572 9.06289 5.6478 8.99048 4.58695C8.91807 3.5261 8.43945 2.534 7.6542 1.81705C6.86894 1.1001 5.83751 0.713485 4.77447 0.73764C3.71142 0.761794 2.69861 1.19486 1.94674 1.94674C1.19486 2.69861 0.761794 3.71142 0.73764 4.77447C0.713485 5.83751 1.1001 6.86894 1.81705 7.6542C2.534 8.43945 3.5261 8.91807 4.58695 8.99048C5.6478 9.06289 6.69572 8.72353 7.51273 8.04298L10.3447 10.875L10.875 10.3447ZM1.49998 4.87498C1.49998 4.20747 1.69792 3.55495 2.06877 2.99993C2.43962 2.44492 2.96673 2.01233 3.58343 1.75689C4.20013 1.50144 4.87873 1.43461 5.53341 1.56483C6.1881 1.69506 6.78947 2.01649 7.26147 2.4885C7.73347 2.9605 8.05491 3.56187 8.18513 4.21655C8.31536 4.87124 8.24852 5.54984 7.99308 6.16654C7.73763 6.78324 7.30505 7.31034 6.75003 7.68119C6.19502 8.05204 5.54249 8.24998 4.87498 8.24998C3.98018 8.24899 3.12231 7.89309 2.48959 7.26037C1.85687 6.62765 1.50097 5.76978 1.49998 4.87498Z" fill="#BFB4A3"/>
</svg>
